<svg width="346" height="260" viewBox="0 0 346 260" fill="none" xmlns="http://www.w3.org/2000/svg">
<path fill-rule="evenodd" clip-rule="evenodd" d="M78.51 196C79.266 195.302 106.425 187.392 109.973 186.287C133.527 178.959 122.942 180.646 141.203 187.16C163.768 195.186 189.881 193.848 211.167 184.543C240.536 171.748 260.542 146.507 267.23 115.798C268.684 109.226 268.917 103.759 268.917 96.664V81.368C268.917 78.693 269.324 77.646 268.335 76.774C267.347 75.959 193.487 76.308 175.109 76.308C174.12 76.366 173.306 77.006 173.306 77.646C173.306 77.646 172.899 108.063 172.899 114.461C172.899 115.624 173.888 116.555 175.051 116.555H224.717C225.008 123.708 210.236 139.12 204.304 143.191C194.65 149.705 181.739 153.835 166.502 152.322C141.262 149.822 122.302 129.989 117.475 107.191C112.183 81.892 125.85 56.476 148.24 45.484C159.407 40.017 174.004 38.272 187.613 41.762C195.871 43.914 204.653 48.741 210.527 54.15C211.923 55.429 215.761 59.675 216.692 59.675C217.331 59.675 246.177 36.353 246.352 35.015C245.829 31.991 236.581 24.023 234.081 21.988C221.344 11.693 207.794 5.18001 191.335 1.86501C179.994 -0.40399 171.562 -0.461989 160.221 0.934011C122.419 5.58701 89.676 34.027 79.847 71.365C73.857 94.338 76.707 117.718 85.547 136.794C89.269 144.762 89.967 141.854 87.35 151.101L77.172 189.544C76.416 192.394 74.381 195.942 78.51 196Z" fill="#0371FF"/>
<path d="M338.5 251.8V259.254H345.957V251.8H338.5ZM331.101 244.347V251.8H338.5V244.347H331.101ZM338.5 229.497H331.101V236.951H338.5V229.497ZM345.957 222.044H338.5V229.497H345.957V222.044ZM331.101 236.951H316.186V222.044H308.728V259.254H316.186V244.347H331.101V236.951ZM263.051 251.8V259.254H292.531V251.8H263.051ZM263.051 229.497H255.594V251.8H263.051V229.497ZM292.531 229.497V222.044H263.051V229.497H292.531ZM240.679 229.497H233.221V244.347H210.849V229.497H203.391V259.254H210.849V251.8H233.221V259.254H240.679V229.497ZM210.849 229.497H233.221V222.044H210.849V229.497ZM188.01 229.497H180.553V244.347H188.01V229.497ZM180.553 244.347H158.18V229.497H180.553V222.044H150.781V259.254H158.18V251.8H173.095V259.254H188.01V251.8H180.553V244.347ZM134.701 222.044H97.472V229.497H112.328V259.254H119.786V229.497H134.701V222.044ZM80.984 236.951H52.377V243.066H80.984V236.951Z" fill="black"/>
<path d="M7.4575 251.8V259.254H37.229V236.951H14.915V244.347H29.772V251.8H7.4575ZM7.4575 229.497H0V251.8H7.4575V229.497ZM37.229 222.044H7.4575V229.497H37.229V222.044Z" fill="#0371FF"/>
</svg>
