<svg width="512" height="512" viewBox="0 0 512 512" fill="none" xmlns="http://www.w3.org/2000/svg">
<rect width="512" height="512" fill="white"/>
<path fill-rule="evenodd" clip-rule="evenodd" d="M161.51 308C162.266 307.302 189.425 299.392 192.973 298.287C216.527 290.959 205.942 292.646 224.203 299.16C246.768 307.186 272.881 305.848 294.167 296.543C323.536 283.748 343.542 258.507 350.23 227.798C351.684 221.226 351.917 215.759 351.917 208.664V193.368C351.917 190.693 352.324 189.646 351.335 188.774C350.347 187.959 276.487 188.308 258.109 188.308C257.12 188.366 256.306 189.006 256.306 189.646C256.306 189.646 255.899 220.063 255.899 226.461C255.899 227.624 256.888 228.555 258.051 228.555H307.717C308.008 235.708 293.236 251.12 287.304 255.191C277.65 261.705 264.739 265.835 249.502 264.322C224.262 261.822 205.302 241.989 200.475 219.191C195.183 193.892 208.85 168.476 231.24 157.484C242.407 152.017 257.004 150.272 270.613 153.762C278.871 155.914 287.653 160.741 293.527 166.15C294.923 167.429 298.761 171.675 299.692 171.675C300.331 171.675 329.177 148.353 329.352 147.015C328.829 143.991 319.581 136.023 317.081 133.988C304.344 123.693 290.794 117.18 274.335 113.865C262.994 111.596 254.562 111.538 243.221 112.934C205.419 117.587 172.676 146.027 162.847 183.365C156.857 206.338 159.707 229.718 168.547 248.794C172.269 256.762 172.967 253.854 170.35 263.101L160.172 301.544C159.416 304.394 157.381 307.942 161.51 308Z" fill="#0371FF"/>
<path d="M421.5 363.8V371.254H428.957V363.8H421.5ZM414.101 356.347V363.8H421.5V356.347H414.101ZM421.5 341.497H414.101V348.951H421.5V341.497ZM428.957 334.044H421.5V341.497H428.957V334.044ZM414.101 348.951H399.186V334.044H391.728V371.254H399.186V356.347H414.101V348.951ZM346.051 363.8V371.254H375.531V363.8H346.051ZM346.051 341.497H338.594V363.8H346.051V341.497ZM375.531 341.497V334.044H346.051V341.497H375.531ZM323.679 341.497H316.221V356.347H293.849V341.497H286.391V371.254H293.849V363.8H316.221V371.254H323.679V341.497ZM293.849 341.497H316.221V334.044H293.849V341.497ZM271.01 341.497H263.553V356.347H271.01V341.497ZM263.553 356.347H241.18V341.497H263.553V334.044H233.781V371.254H241.18V363.8H256.095V371.254H271.01V363.8H263.553V356.347ZM217.701 334.044H180.472V341.497H195.328V371.254H202.786V341.497H217.701V334.044ZM163.984 348.951H135.377V355.066H163.984V348.951Z" fill="black"/>
<path d="M90.4575 363.8V371.254H120.229V348.951H97.915V356.347H112.772V363.8H90.4575ZM90.4575 341.497H83V363.8H90.4575V341.497ZM120.229 334.044H90.4575V341.497H120.229V334.044Z" fill="#0371FF"/>
<path d="M102.062 389H94V391.013H97.0962V399H98.9656V391.013H102.062V389ZM112.986 391.704V391.013H112.402V390.321H111.759V389.692H111.117V389H105.567V399H107.436V397.679H110.533V398.371H111.117V399H113.629V398.371H112.986V397.679H112.402V396.987H111.759V396.359H112.402V395.667H112.986V395.038H113.629V391.704H112.986ZM111.117 394.346V395.038H110.533V395.667H107.436V391.013H110.533V391.704H111.117V392.333H111.759V394.346H111.117ZM125.137 391.704V391.013H124.553V390.321H123.911V389.692H123.326V389H120.23V389.692H119.588V390.321H118.945V391.013H118.361V391.704H117.718V399H119.588V396.359H123.911V399H125.78V391.704H125.137ZM120.23 392.333V391.704H120.814V391.013H122.684V391.704H123.326V392.333H123.911V394.346H119.588V392.333H120.23ZM139.158 389H137.347V395.038H136.704V394.346H136.12V393.654H135.478V393.025H134.835V392.333H134.251V391.704H133.608V391.013H133.024V390.321H132.381V389.692H131.739V389H129.928V399H131.739V392.333H132.381V393.025H133.024V393.654H133.608V394.346H134.251V395.038H134.835V395.667H135.478V396.359H136.12V396.987H136.704V397.679H137.347V399H139.158V389ZM150.725 390.321V389.692H150.141V389H144.533V389.692H143.948V390.321H143.306V393.654H143.948V394.346H144.533V395.038H149.498V396.987H145.175V395.667H143.306V397.679H143.948V398.371H144.533V399H150.141V398.371H150.725V397.679H151.368V394.346H150.725V393.654H150.141V393.025H145.175V391.013H149.498V392.333H151.368V390.321H150.725ZM162.876 391.704V391.013H162.292V390.321H161.649V389.692H161.065V389H155.457V399H157.326V397.679H161.065V396.987H161.649V396.359H162.292V395.667H162.876V395.038H163.519V391.704H162.876ZM161.065 394.346V395.038H160.423V395.667H157.326V391.013H160.423V391.704H161.065V392.333H161.649V394.346H161.065ZM176.313 391.704V391.013H175.67V390.321H175.086V389.692H174.443V389H170.12V389.692H169.478V390.321H168.893V391.013H168.251V391.704H167.667V396.359H168.251V396.987H168.893V397.679H169.478V398.371H170.12V399H174.443V398.371H175.086V397.679H175.67V396.987H176.313V396.359H176.897V391.704H176.313ZM174.443 395.667V396.359H173.859V396.987H170.763V396.359H170.12V395.667H169.478V392.333H170.12V391.704H170.763V391.013H173.859V391.704H174.443V392.333H175.086V395.667H174.443ZM188.464 391.704V391.013H187.88V390.321H187.237V389.692H186.595V389H181.045V399H182.914V397.679H186.01V398.371H186.595V399H189.107V398.371H188.464V397.679H187.88V396.987H187.237V396.359H187.88V395.667H188.464V395.038H189.107V391.704H188.464ZM186.595 394.346V395.038H186.01V395.667H182.914V391.013H186.01V391.704H186.595V392.333H187.237V394.346H186.595ZM200.031 389H191.969V391.013H195.065V399H196.935V391.013H200.031V389ZM220.828 389H219.017V389.692H218.375V390.321H217.732V391.013H217.148V391.704H216.505V392.333H215.921V393.025H215.278V393.654H214.636V393.025H214.052V392.333H213.409V391.704H212.825V391.013H212.182V390.321H211.598V389.692H210.955V389H209.086V399H210.955V392.333H211.598V393.025H212.182V393.654H212.825V394.346H213.409V395.038H214.052V395.667H214.636V396.359H215.278V395.667H215.921V395.038H216.505V394.346H217.148V393.654H217.732V393.025H218.375V392.333H219.017V399H220.828V389ZM232.395 391.704V391.013H231.811V390.321H231.168V389.692H230.526V389H227.43V389.692H226.845V390.321H226.203V391.013H225.619V391.704H224.976V399H226.845V396.359H231.168V399H233.038V391.704H232.395ZM227.43 392.333V391.704H228.072V391.013H229.942V391.704H230.526V392.333H231.168V394.346H226.845V392.333H227.43ZM246.416 389H244.546V395.038H243.962V394.346H243.32V393.654H242.735V393.025H242.093V392.333H241.45V391.704H240.866V391.013H240.223V390.321H239.639V389.692H238.997V389H237.127V399H238.997V392.333H239.639V393.025H240.223V393.654H240.866V394.346H241.45V395.038H242.093V395.667H242.735V396.359H243.32V396.987H243.962V397.679H244.546V399H246.416V389ZM257.983 391.704V391.013H257.34V390.321H256.756V389.692H256.113V389H253.017V389.692H252.375V390.321H251.79V391.013H251.148V391.704H250.564V399H252.375V396.359H256.756V399H258.567V391.704H257.983ZM253.017 392.333V391.704H253.66V391.013H255.471V391.704H256.113V392.333H256.756V394.346H252.375V392.333H253.017ZM272.003 389H265.168V389.692H264.584V390.321H263.942V391.013H263.357V391.704H262.715V396.359H263.357V396.987H263.942V397.679H264.584V398.371H265.168V399H272.003V393.025H267.038V395.038H270.134V396.987H265.811V396.359H265.168V395.667H264.584V392.333H265.168V391.704H265.811V391.013H272.003V389ZM284.155 389H278.605V389.692H277.962V390.321H277.378V391.013H276.735V391.704H276.093V396.359H276.735V396.987H277.378V397.679H277.962V398.371H278.605V399H284.155V396.987H279.189V396.359H278.605V395.667H277.962V395.038H282.928V393.025H277.962V392.333H278.605V391.704H279.189V391.013H284.155V389ZM300.045 389H298.175V389.692H297.591V390.321H296.948V391.013H296.306V391.704H295.722V392.333H295.079V393.025H294.495V393.654H293.852V393.025H293.21V392.333H292.625V391.704H291.983V391.013H291.399V390.321H290.756V389.692H290.113V389H288.302V399H290.113V392.333H290.756V393.025H291.399V393.654H291.983V394.346H292.625V395.038H293.21V395.667H293.852V396.359H294.495V395.667H295.079V395.038H295.722V394.346H296.306V393.654H296.948V393.025H297.591V392.333H298.175V399H300.045V389ZM312.196 389H306.646V389.692H306.003V390.321H305.419V391.013H304.777V391.704H304.192V396.359H304.777V396.987H305.419V397.679H306.003V398.371H306.646V399H312.196V396.987H307.289V396.359H306.646V395.667H306.003V395.038H310.969V393.025H306.003V392.333H306.646V391.704H307.289V391.013H312.196V389ZM325.632 389H323.763V395.038H323.12V394.346H322.536V393.654H321.893V393.025H321.309V392.333H320.667V391.704H320.024V391.013H319.44V390.321H318.797V389.692H318.213V389H316.344V399H318.213V392.333H318.797V393.025H319.44V393.654H320.024V394.346H320.667V395.038H321.309V395.667H321.893V396.359H322.536V396.987H323.12V397.679H323.763V399H325.632V389ZM337.141 389H329.137V391.013H332.234V399H334.045V391.013H337.141V389ZM353.674 390.321V389.692H353.031V389H347.481V389.692H346.839V390.321H346.254V393.654H346.839V394.346H347.481V395.038H352.447V396.987H348.065V395.667H346.254V397.679H346.839V398.371H347.481V399H353.031V398.371H353.674V397.679H354.258V394.346H353.674V393.654H353.031V393.025H348.065V391.013H352.447V392.333H354.258V390.321H353.674ZM366.467 389H364.598V392.333H363.955V393.025H363.371V393.654H362.729V394.346H362.144V393.654H361.502V393.025H360.859V392.333H360.275V389H358.406V393.025H359.048V393.654H359.632V394.346H360.275V395.038H360.859V395.667H361.502V399H363.371V395.667H363.955V395.038H364.598V394.346H365.241V393.654H365.825V393.025H366.467V389ZM377.976 390.321V389.692H377.392V389H371.784V389.692H371.199V390.321H370.557V393.654H371.199V394.346H371.784V395.038H376.749V396.987H372.426V395.667H370.557V397.679H371.199V398.371H371.784V399H377.392V398.371H377.976V397.679H378.619V394.346H377.976V393.654H377.392V393.025H372.426V391.013H376.749V392.333H378.619V390.321H377.976ZM390.186 389H382.124V391.013H385.22V399H387.089V391.013H390.186V389ZM401.11 389H395.502V389.692H394.918V390.321H394.275V391.013H393.691V391.704H393.048V396.359H393.691V396.987H394.275V397.679H394.918V398.371H395.502V399H401.11V396.987H396.144V396.359H395.502V395.667H394.918V395.038H399.883V393.025H394.918V392.333H395.502V391.704H396.144V391.013H401.11V389ZM417 389H415.131V389.692H414.488V390.321H413.904V391.013H413.261V391.704H412.619V392.333H412.034V393.025H411.392V393.654H410.808V393.025H410.165V392.333H409.522V391.704H408.938V391.013H408.296V390.321H407.711V389.692H407.069V389H405.199V399H407.069V392.333H407.711V393.025H408.296V393.654H408.938V394.346H409.522V395.038H410.165V395.667H410.808V396.359H411.392V395.667H412.034V395.038H412.619V394.346H413.261V393.654H413.904V393.025H414.488V392.333H415.131V399H417V389Z" fill="black"/>
</svg>
